<svg width="87" height="25" viewBox="0 0 87 25" fill="none" xmlns="http://www.w3.org/2000/svg">
<g clip-path="url(#clip0_1_16)">
<path fill-rule="evenodd" clip-rule="evenodd" d="M8.47429 6.20218C7.48581 5.98687 6.28553 6.48926 6.17961 8.3912C6.17961 9.89837 6.17961 11.4056 6.17961 12.9128C4.66159 12.0156 3.17889 11.0826 1.66087 10.1855C-0.91623 7.92468 -0.245479 4.9462 2.0492 3.6902C2.64935 3.47489 3.21419 3.29547 3.81432 3.08015C5.36765 4.12084 6.92096 5.16151 8.47429 6.20218Z" fill="#2563EB"/>
<path fill-rule="evenodd" clip-rule="evenodd" d="M9.49792 18.7978C10.4864 19.0132 11.6867 18.5107 11.7926 16.6088C11.7926 15.1016 11.7926 13.5944 11.7926 12.0873C13.3106 12.9844 14.7933 13.9174 16.3114 14.8145C18.8884 17.0753 18.2178 20.0538 15.923 21.3098C15.3229 21.5252 14.758 21.7045 14.1579 21.9199C12.6046 20.8792 11.0513 19.8386 9.49792 18.7978Z" fill="#2563EB"/>
<path fill-rule="evenodd" clip-rule="evenodd" d="M2.04899 3.69011C3.14337 3.51069 3.81411 3.79777 4.44956 4.19252C8.93301 6.84803 13.4165 9.46766 17.9351 12.1232C17.9351 10.4007 17.9704 8.6423 17.9704 6.9198C18.0059 5.16141 17.441 4.37194 16.1348 3.58246C14.2637 2.54179 12.428 1.50111 10.5922 0.460433C9.39194 -0.185504 8.08574 -0.185506 6.85016 0.675744C5.26153 1.64465 3.67291 2.68533 2.04899 3.69011Z" fill="#2563EB"/>
<path fill-rule="evenodd" clip-rule="evenodd" d="M15.9231 21.31C14.8287 21.4893 14.1579 21.2022 13.5225 20.8076C9.03905 18.152 4.5556 15.5324 0.0368565 12.8768C0.0368565 14.5993 0.00155389 16.3577 0.00155389 18.0802C-0.0337488 19.8386 0.531095 20.6281 1.8373 21.4176C3.67303 22.4583 5.50877 23.4989 7.34452 24.5397C8.54481 25.1855 9.85101 25.1855 11.0866 24.3243C12.7105 23.3554 14.2991 22.3147 15.9231 21.31Z" fill="#2563EB"/>
</g>
<path d="M27.792 17.084C27.176 17.084 26.624 16.984 26.136 16.784C25.648 16.584 25.256 16.288 24.96 15.896C24.672 15.504 24.52 15.032 24.504 14.48H26.688C26.72 14.792 26.828 15.032 27.012 15.2C27.196 15.36 27.436 15.44 27.732 15.44C28.036 15.44 28.276 15.372 28.452 15.236C28.628 15.092 28.716 14.896 28.716 14.648C28.716 14.44 28.644 14.268 28.5 14.132C28.364 13.996 28.192 13.884 27.984 13.796C27.784 13.708 27.496 13.608 27.12 13.496C26.576 13.328 26.132 13.16 25.788 12.992C25.444 12.824 25.148 12.576 24.9 12.248C24.652 11.92 24.528 11.492 24.528 10.964C24.528 10.18 24.812 9.568 25.38 9.128C25.948 8.68 26.688 8.456 27.6 8.456C28.528 8.456 29.276 8.68 29.844 9.128C30.412 9.568 30.716 10.184 30.756 10.976H28.536C28.52 10.704 28.42 10.492 28.236 10.34C28.052 10.18 27.816 10.1 27.528 10.1C27.28 10.1 27.08 10.168 26.928 10.304C26.776 10.432 26.7 10.62 26.7 10.868C26.7 11.14 26.828 11.352 27.084 11.504C27.34 11.656 27.74 11.82 28.284 11.996C28.828 12.18 29.268 12.356 29.604 12.524C29.948 12.692 30.244 12.936 30.492 13.256C30.74 13.576 30.864 13.988 30.864 14.492C30.864 14.972 30.74 15.408 30.492 15.8C30.252 16.192 29.9 16.504 29.436 16.736C28.972 16.968 28.424 17.084 27.792 17.084ZM33.1588 9.608C32.7988 9.608 32.5028 9.504 32.2708 9.296C32.0468 9.08 31.9348 8.816 31.9348 8.504C31.9348 8.184 32.0468 7.92 32.2708 7.712C32.5028 7.496 32.7988 7.388 33.1588 7.388C33.5108 7.388 33.7988 7.496 34.0228 7.712C34.2548 7.92 34.3708 8.184 34.3708 8.504C34.3708 8.816 34.2548 9.08 34.0228 9.296C33.7988 9.504 33.5108 9.608 33.1588 9.608ZM34.1788 10.304V17H32.1268V10.304H34.1788ZM37.7179 11.42C37.9579 11.052 38.2579 10.764 38.6179 10.556C38.9779 10.34 39.3779 10.232 39.8179 10.232V12.404H39.2539C38.7419 12.404 38.3579 12.516 38.1019 12.74C37.8459 12.956 37.7179 13.34 37.7179 13.892V17H35.6659V10.304H37.7179V11.42ZM47.4107 10.304V17H45.3587V16.088C45.1507 16.384 44.8667 16.624 44.5067 16.808C44.1547 16.984 43.7627 17.072 43.3307 17.072C42.8187 17.072 42.3667 16.96 41.9747 16.736C41.5827 16.504 41.2787 16.172 41.0627 15.74C40.8467 15.308 40.7387 14.8 40.7387 14.216V10.304H42.7787V13.94C42.7787 14.388 42.8947 14.736 43.1267 14.984C43.3587 15.232 43.6707 15.356 44.0627 15.356C44.4627 15.356 44.7787 15.232 45.0107 14.984C45.2427 14.736 45.3587 14.388 45.3587 13.94V10.304H47.4107ZM51.6086 17.096C51.0246 17.096 50.5046 16.996 50.0486 16.796C49.5926 16.596 49.2326 16.324 48.9686 15.98C48.7046 15.628 48.5566 15.236 48.5246 14.804H50.5526C50.5766 15.036 50.6846 15.224 50.8766 15.368C51.0686 15.512 51.3046 15.584 51.5846 15.584C51.8406 15.584 52.0366 15.536 52.1726 15.44C52.3166 15.336 52.3886 15.204 52.3886 15.044C52.3886 14.852 52.2886 14.712 52.0886 14.624C51.8886 14.528 51.5646 14.424 51.1166 14.312C50.6366 14.2 50.2366 14.084 49.9166 13.964C49.5966 13.836 49.3206 13.64 49.0886 13.376C48.8566 13.104 48.7406 12.74 48.7406 12.284C48.7406 11.9 48.8446 11.552 49.0526 11.24C49.2686 10.92 49.5806 10.668 49.9886 10.484C50.4046 10.3 50.8966 10.208 51.4646 10.208C52.3046 10.208 52.9646 10.416 53.4446 10.832C53.9326 11.248 54.2126 11.8 54.2846 12.488H52.3886C52.3566 12.256 52.2526 12.072 52.0766 11.936C51.9086 11.8 51.6846 11.732 51.4046 11.732C51.1646 11.732 50.9806 11.78 50.8526 11.876C50.7246 11.964 50.6606 12.088 50.6606 12.248C50.6606 12.44 50.7606 12.584 50.9606 12.68C51.1686 12.776 51.4886 12.872 51.9206 12.968C52.4166 13.096 52.8206 13.224 53.1326 13.352C53.4446 13.472 53.7166 13.672 53.9486 13.952C54.1886 14.224 54.3126 14.592 54.3206 15.056C54.3206 15.448 54.2086 15.8 53.9846 16.112C53.7686 16.416 53.4526 16.656 53.0366 16.832C52.6286 17.008 52.1526 17.096 51.6086 17.096Z" fill="black"/>
<path d="M58.624 17.084C58.008 17.084 57.456 16.984 56.968 16.784C56.48 16.584 56.088 16.288 55.792 15.896C55.504 15.504 55.352 15.032 55.336 14.48H57.52C57.552 14.792 57.66 15.032 57.844 15.2C58.028 15.36 58.268 15.44 58.564 15.44C58.868 15.44 59.108 15.372 59.284 15.236C59.46 15.092 59.548 14.896 59.548 14.648C59.548 14.44 59.476 14.268 59.332 14.132C59.196 13.996 59.024 13.884 58.816 13.796C58.616 13.708 58.328 13.608 57.952 13.496C57.408 13.328 56.964 13.16 56.62 12.992C56.276 12.824 55.98 12.576 55.732 12.248C55.484 11.92 55.36 11.492 55.36 10.964C55.36 10.18 55.644 9.568 56.212 9.128C56.78 8.68 57.52 8.456 58.432 8.456C59.36 8.456 60.108 8.68 60.676 9.128C61.244 9.568 61.548 10.184 61.588 10.976H59.368C59.352 10.704 59.252 10.492 59.068 10.34C58.884 10.18 58.648 10.1 58.36 10.1C58.112 10.1 57.912 10.168 57.76 10.304C57.608 10.432 57.532 10.62 57.532 10.868C57.532 11.14 57.66 11.352 57.916 11.504C58.172 11.656 58.572 11.82 59.116 11.996C59.66 12.18 60.1 12.356 60.436 12.524C60.78 12.692 61.076 12.936 61.324 13.256C61.572 13.576 61.696 13.988 61.696 14.492C61.696 14.972 61.572 15.408 61.324 15.8C61.084 16.192 60.732 16.504 60.268 16.736C59.804 16.968 59.256 17.084 58.624 17.084ZM66.6908 15.26V17H65.6468C64.9028 17 64.3228 16.82 63.9068 16.46C63.4908 16.092 63.2828 15.496 63.2828 14.672V12.008H62.4668V10.304H63.2828V8.672H65.3348V10.304H66.6788V12.008H65.3348V14.696C65.3348 14.896 65.3828 15.04 65.4788 15.128C65.5748 15.216 65.7348 15.26 65.9588 15.26H66.6908ZM70.8818 17.096C70.2258 17.096 69.6338 16.956 69.1058 16.676C68.5858 16.396 68.1738 15.996 67.8698 15.476C67.5738 14.956 67.4258 14.348 67.4258 13.652C67.4258 12.964 67.5778 12.36 67.8818 11.84C68.1858 11.312 68.6018 10.908 69.1298 10.628C69.6578 10.348 70.2498 10.208 70.9058 10.208C71.5618 10.208 72.1538 10.348 72.6818 10.628C73.2098 10.908 73.6258 11.312 73.9298 11.84C74.2338 12.36 74.3858 12.964 74.3858 13.652C74.3858 14.34 74.2298 14.948 73.9178 15.476C73.6138 15.996 73.1938 16.396 72.6578 16.676C72.1298 16.956 71.5378 17.096 70.8818 17.096ZM70.8818 15.32C71.2738 15.32 71.6058 15.176 71.8778 14.888C72.1578 14.6 72.2978 14.188 72.2978 13.652C72.2978 13.116 72.1618 12.704 71.8898 12.416C71.6258 12.128 71.2978 11.984 70.9058 11.984C70.5058 11.984 70.1738 12.128 69.9098 12.416C69.6458 12.696 69.5138 13.108 69.5138 13.652C69.5138 14.188 69.6418 14.6 69.8978 14.888C70.1618 15.176 70.4898 15.32 70.8818 15.32ZM77.5265 11.42C77.7665 11.052 78.0665 10.764 78.4265 10.556C78.7865 10.34 79.1865 10.232 79.6265 10.232V12.404H79.0625C78.5505 12.404 78.1665 12.516 77.9105 12.74C77.6545 12.956 77.5265 13.34 77.5265 13.892V17H75.4745V10.304H77.5265V11.42ZM86.9193 13.544C86.9193 13.736 86.9073 13.936 86.8833 14.144H82.2393C82.2713 14.56 82.4033 14.88 82.6353 15.104C82.8753 15.32 83.1673 15.428 83.5113 15.428C84.0233 15.428 84.3793 15.212 84.5793 14.78H86.7633C86.6513 15.22 86.4473 15.616 86.1513 15.968C85.8633 16.32 85.4993 16.596 85.0593 16.796C84.6193 16.996 84.1273 17.096 83.5833 17.096C82.9273 17.096 82.3433 16.956 81.8313 16.676C81.3193 16.396 80.9193 15.996 80.6313 15.476C80.3433 14.956 80.1993 14.348 80.1993 13.652C80.1993 12.956 80.3393 12.348 80.6193 11.828C80.9073 11.308 81.3073 10.908 81.8193 10.628C82.3313 10.348 82.9193 10.208 83.5833 10.208C84.2313 10.208 84.8073 10.344 85.3113 10.616C85.8153 10.888 86.2073 11.276 86.4873 11.78C86.7753 12.284 86.9193 12.872 86.9193 13.544ZM84.8193 13.004C84.8193 12.652 84.6993 12.372 84.4593 12.164C84.2193 11.956 83.9193 11.852 83.5593 11.852C83.2153 11.852 82.9233 11.952 82.6833 12.152C82.4513 12.352 82.3073 12.636 82.2513 13.004H84.8193Z" fill="#2563EB"/>
<defs>
<clipPath id="clip0_1_16">
<rect width="18" height="25" fill="white"/>
</clipPath>
</defs>
</svg>
