<svg width="18" height="25" viewBox="0 0 18 25" fill="none" xmlns="http://www.w3.org/2000/svg">
<g clip-path="url(#clip0_1_8)">
<path fill-rule="evenodd" clip-rule="evenodd" d="M8.47429 6.20218C7.48581 5.98687 6.28553 6.48926 6.17961 8.3912C6.17961 9.89837 6.17961 11.4056 6.17961 12.9128C4.66159 12.0156 3.17889 11.0826 1.66087 10.1855C-0.91623 7.92468 -0.245479 4.9462 2.0492 3.6902C2.64935 3.47489 3.21419 3.29547 3.81432 3.08015C5.36765 4.12084 6.92096 5.16151 8.47429 6.20218Z" fill="#2563EB"/>
<path fill-rule="evenodd" clip-rule="evenodd" d="M9.49792 18.7978C10.4864 19.0132 11.6867 18.5107 11.7926 16.6088C11.7926 15.1016 11.7926 13.5944 11.7926 12.0873C13.3106 12.9844 14.7933 13.9174 16.3114 14.8145C18.8884 17.0753 18.2178 20.0538 15.923 21.3098C15.3229 21.5252 14.758 21.7045 14.1579 21.9199C12.6046 20.8792 11.0513 19.8386 9.49792 18.7978Z" fill="#2563EB"/>
<path fill-rule="evenodd" clip-rule="evenodd" d="M2.04899 3.69011C3.14337 3.51069 3.81411 3.79777 4.44956 4.19252C8.93301 6.84803 13.4165 9.46766 17.9351 12.1232C17.9351 10.4007 17.9704 8.6423 17.9704 6.9198C18.0059 5.16141 17.441 4.37194 16.1348 3.58246C14.2637 2.54179 12.428 1.50111 10.5922 0.460433C9.39194 -0.185504 8.08574 -0.185506 6.85016 0.675744C5.26153 1.64465 3.67291 2.68533 2.04899 3.69011Z" fill="#2563EB"/>
<path fill-rule="evenodd" clip-rule="evenodd" d="M15.9231 21.31C14.8287 21.4893 14.1579 21.2022 13.5225 20.8076C9.03905 18.152 4.5556 15.5324 0.0368565 12.8768C0.0368565 14.5993 0.00155389 16.3577 0.00155389 18.0802C-0.0337488 19.8386 0.531095 20.6281 1.8373 21.4176C3.67303 22.4583 5.50877 23.4989 7.34452 24.5397C8.54481 25.1855 9.85101 25.1855 11.0866 24.3243C12.7105 23.3554 14.2991 22.3147 15.9231 21.31Z" fill="#2563EB"/>
</g>
<defs>
<clipPath id="clip0_1_8">
<rect width="18" height="25" fill="white"/>
</clipPath>
</defs>
</svg>
